<svg id="Layer_1" data-name="Layer 1" xmlns="http://www.w3.org/2000/svg" width="1024" height="759" viewBox="0 0 1024 759">
  <defs>
    <style>
      .cls-1 {
        fill: #232323;
      }
    </style>
  </defs>
  <g>
    <path class="cls-1" d="M324.89,284.78q-40.47-.9-80.94-1.82a33.26,33.26,0,0,1-5.46-.57c-7.71-1.46-11.57-5.82-9.83-13.37a176.3,176.3,0,0,1,8.94-28.43C263,179.82,304,131.05,354.3,89.47A602.33,602.33,0,0,1,470.1,14.28,58,58,0,0,1,477.9,11c7-2.28,13.28,1.5,13.2,8.92a97.92,97.92,0,0,1-2.77,22.69q-23.67,94.94-47.9,189.72c-2.62,10.32-5.61,20.55-8.64,30.75-4.19,14.12-10.93,19.42-26,19.86-21.81.66-43.63,1-65.45,1.38-5.16.1-10.33,0-15.49,0Z"/>
    <path class="cls-1" d="M686.36,290c27.32,0,54.63-.07,81.95.08,3.78,0,7.58.95,11.32,1.73,4.26.89,6.53,3.81,5.5,8-2.28,9.33-4.15,18.9-7.71,27.76-20.68,51.44-53,94.85-93.22,132.59-42.82,40.22-91.58,71.92-143.66,98.69-3.92,2-7.9,5.24-12.9,1.47-5.56-4.2-7.82-9.55-6.41-16.16,2.37-11.06,5-22.07,7.78-33q24.39-95.77,49-191.52c1.45-5.63,3.39-11.14,5-16.72,2.14-7.26,7.38-11.32,14.48-11.93,12.59-1.08,25.25-1.61,37.89-1.83,17-.29,34-.07,51-.07Z"/>
    <path class="cls-1" d="M759.18,273c-9-2.23-22.78-5.48-36.45-9q-98.11-25.35-196.2-50.86c-14.07-3.66-16.76-6.83-17.41-21.45q-1.19-26.44-1.31-53c-.12-34.49.08-69,.25-103.48,0-5.16.44-10.32.92-15.46.64-6.75,3.92-10.3,10.68-9.93a59.15,59.15,0,0,1,17.47,3.53c41.54,15.79,78.66,39,112,68.25,42.63,37.42,76.57,81.91,105.53,130.39,7.59,12.71,14.48,25.84,21.69,38.79.48.87.9,1.78,1.3,2.7C783.14,266,777.67,273.91,759.18,273Z"/>
    <path class="cls-1" d="M505,470.65c0,23.65.06,47.31-.05,71,0,5.32-.49,10.65-1,15.95-.56,5.79-3.24,8.7-9,8.45a59.29,59.29,0,0,1-16.1-2.77c-31.6-10.49-59.93-27.15-86.63-46.76-51.79-38-92.37-86.2-125.95-140.51C256,359.43,247,342.11,237.55,325.11a48.44,48.44,0,0,1-3.17-7.32c-3-8.56,1.13-15.07,10.15-14.7a111,111,0,0,1,22.66,3.22q110,28,220,56.42c13.16,3.4,15.84,6.84,16.75,20.5.7,10.46,1.1,21,1.21,31.44.19,18.66.05,37.32.05,56Z"/>
    <path d="M301.23,612.69c12.61,0,25.06-.12,37.5.16,1.47,0,3.27,2,4.29,3.44q21.59,31.22,43,62.57a14.69,14.69,0,0,0,3.69,3.91c2-23.21.87-46.45,1.46-69.86h39.64V748.19H390.54l-47.32-69.6-1.51.35v69.32H301.23Z"/>
    <path d="M727.51,612.6c13,0,25.11-.14,37.23.18,1.6,0,3.53,2.16,4.64,3.77,14.38,20.84,28.63,41.76,42.93,62.66a13,13,0,0,0,4.32,4.25V613.05H857V748.18H816.75c-16.1-23.68-32-47-47.83-70.35l-1.27.28v70.12H727.51Z"/>
    <path d="M90.77,654.46c-.77-1.94-1.11-2.69-1.37-3.47-4-12.32-12.66-15.7-26.89-12.12-3.8,1-5.74,3.88-5.78,7.81,0,3.71,2.22,5.79,5.55,6.79,11.78,3.54,23.63,6.86,35.36,10.58a95.33,95.33,0,0,1,15.22,6.18c20,10.42,27.12,31.84,17.46,52.27-5.86,12.4-15.32,20.83-28.59,24.63a104.7,104.7,0,0,1-56.24.74c-19.22-5-34.52-25.39-33.57-44.59l39.3-2.69c1.07,3.29,1.88,6.13,2.91,8.89,4.46,11.95,19.69,17.78,31.06,11.92,4.69-2.42,7.24-6.15,7.28-11.58s-2.83-8.88-7.63-10.51c-7.86-2.68-16-4.69-23.8-7.4-8.15-2.82-16.53-5.38-24.11-9.37-15.53-8.16-22.7-22.91-19.86-38.45,2.78-15.18,17.34-29.54,33.39-30.94,14.39-1.25,29.11-2.2,43.38-.57,20.37,2.33,31.74,15.08,35.51,34.48.27,1.39-1.59,4.55-2.68,4.65C114.66,652.89,102.6,653.62,90.77,654.46Z"/>
    <path d="M191.82,613h46.49l50.41,134.76H243.88c-1.94-6.18-4.15-13.24-6.42-20.49H190.63c-1.88,7-3.77,14-5.62,20.9h-44.1C158,702.72,174.89,658,191.82,613ZM215,654.18l-1.62.18c-4.19,13.72-8.37,27.45-12.83,42.07h28.1C223.86,681.71,219.41,667.94,215,654.18Z"/>
    <path d="M1016.11,748.23H971.35c-2.15-6.83-4.37-13.9-6.62-21H918c-1.88,6.66-3.81,13.46-5.83,20.62H868.24c17-45.31,33.88-90,50.77-134.9h46.4Zm-73.9-95.68-1.08.15-13.35,43.62h27.54C950.91,681.58,946.56,667.07,942.21,652.55Z"/>
    <path d="M715,748h-44.5c-2.21-6.67-4.55-13.7-7-21.15H617.32c-2.09,6.69-4.31,13.77-6.62,21.15H567.41l50.5-135H664.5C681.25,657.79,697.92,702.37,715,748Zm-88-51.48h27.81c-4.72-14.92-9.15-28.9-13.58-42.88l-1.67.25C635.33,668,631.17,682.12,626.93,696.5Z"/>
    <path d="M490.84,748V647.29H448.3V613H575.4v34.41H533.14V748Z"/>
  </g>
</svg>
